<svg xmlns="http://www.w3.org/2000/svg" width="21.298" height="17.078" viewBox="0 0 21.298 17.078">
  <g id="Group_458" data-name="Group 458" transform="translate(-0.001)">
    <path id="Rectangle_75_Stroke_" data-name="Rectangle 75 (Stroke)" d="M17.95,10.7H3.259a2.421,2.421,0,0,1-2.4-2.119L.013,1.769A1.575,1.575,0,0,1,1.575,0H19.724a1.575,1.575,0,0,1,1.56,1.79l-.94,6.826A2.427,2.427,0,0,1,17.95,10.7ZM1.877,1.842l.811,6.516a.575.575,0,0,0,.571.5H17.95a.577.577,0,0,0,.57-.5l.9-6.523Z" transform="translate(0 6.374)" fill="#0c8bff"/>
    <path id="Vector_14_Stroke_" data-name="Vector 14 (Stroke)" d="M6.364,3.547,6.242,4.674l-1.078-.35a3.34,3.34,0,0,0-1.958-.177,1.414,1.414,0,0,0-.83.679A6.012,6.012,0,0,0,1.842,7.7H0A7.717,7.717,0,0,1,.793,3.882a3.252,3.252,0,0,1,1.882-1.5,4.469,4.469,0,0,1,2.17-.045A4.06,4.06,0,0,1,6.479.743,6.272,6.272,0,0,1,10.15.036c2.8.29,5.693,2.348,7.022,7.111l-1.775.5c-1.162-4.164-3.52-5.574-5.437-5.773a4.434,4.434,0,0,0-2.581.483A1.76,1.76,0,0,0,6.364,3.547Z" transform="translate(2.384)" fill="#0c8bff"/>
  </g>
</svg>
