<svg xmlns="http://www.w3.org/2000/svg" width="48.492" height="49" viewBox="0 0 48.492 49">
  <g id="Group_2" data-name="Group 2" transform="translate(0.5 0.5)">
    <path id="Path" d="M12.422,2.279,9.178,16.988a7.535,7.535,0,0,1-2.613,4.228,7.49,7.49,0,0,1-4.69,1.656,1.875,1.875,0,0,1,0-3.749A3.714,3.714,0,0,0,5.517,16.18L8.761,1.472a1.875,1.875,0,1,1,3.661.807Z" transform="translate(35.525 10.225)" fill="#3b3c45"/>
    <path id="Path_2" data-name="Path 2" d="M337.4,764.991a5.526,5.526,0,0,1-5.234-7.311h-8.09a5.53,5.53,0,1,1-10.469,0h-.765a5.63,5.63,0,0,1-5.623-5.624c0-.008,0-.016,0-.024s0-.016,0-.023,0-.016,0-.024,0-.016,0-.024a5.641,5.641,0,0,1,3.307-5.123L308.3,726.367a6.5,6.5,0,0,0-6.422-5.618,1.874,1.874,0,1,1,0-3.749,10.256,10.256,0,0,1,10.142,8.9l0,.041,2.221,20.4h13.783a1.875,1.875,0,1,1,0,3.749H312.841a1.876,1.876,0,0,0-1.875,1.874c0,.008,0,.016,0,.024s0,.016,0,.024,0,.014,0,.021,0,.018,0,.026a1.877,1.877,0,0,0,1.875,1.875H337.4a5.53,5.53,0,1,1,0,11.06Zm0-7.311a1.781,1.781,0,1,0,1.781,1.78A1.782,1.782,0,0,0,337.4,757.68Zm-18.559,0a1.781,1.781,0,1,0,1.781,1.78A1.783,1.783,0,0,0,318.84,757.68Z" transform="translate(-300 -716.991)" fill="#3b3c45" stroke="rgba(0,0,0,0)" stroke-width="1"/>
    <path id="Path_1" data-name="Path 1" d="M317.686,739.88h-9.6a5.286,5.286,0,0,1-5.278-5.282v-5.28a1.875,1.875,0,0,1-2.2-3.013l8.736-7.906a5.289,5.289,0,0,1,7.166,0l8.735,7.906a1.874,1.874,0,0,1-2.29,2.954v5.34A5.286,5.286,0,0,1,317.686,739.88Zm-4.752-19.124a1.566,1.566,0,0,0-1.057.413l-.006.006-5.316,4.811,0,.022c0,.03,0,.061,0,.092v8.5a1.532,1.532,0,0,0,1.528,1.533h9.6a1.532,1.532,0,0,0,1.528-1.533v-8.5a1.754,1.754,0,0,1,.011-.2L314,721.175l-.006-.006A1.565,1.565,0,0,0,312.935,720.756Z" transform="translate(-284.722 -717)" fill="#f7a804" stroke="rgba(0,0,0,0)" stroke-miterlimit="10" stroke-width="1"/>
  </g>
</svg>
