<svg xmlns="http://www.w3.org/2000/svg" width="11" height="10" viewBox="0 0 11 10">
  <path id="Union" d="M6.17,10H3.893L3.9,3.315h2.2v.91a2.306,2.306,0,0,1,.918-.809,2.594,2.594,0,0,1,1.152-.268l.093,0a2.511,2.511,0,0,1,2.225.914A3.879,3.879,0,0,1,11,6.326v3.66H8.722V6.761c0-.789,0-1.771-1.184-1.771-1.2,0-1.367.864-1.367,1.709V10ZM2.437,9.986H.159V3.315H2.437V9.985ZM1.321,2.4a1.443,1.443,0,0,1-.5-.089A1.3,1.3,0,0,1,.227,1.87,1.118,1.118,0,0,1,0,1.206,1.1,1.1,0,0,1,.1.745,1.21,1.21,0,0,1,.384.354,1.332,1.332,0,0,1,.814.092,1.443,1.443,0,0,1,1.321,0a1.414,1.414,0,0,1,.733.2,1.234,1.234,0,0,1,.487.537,1.1,1.1,0,0,1,.076.692,1.165,1.165,0,0,1-.36.614,1.354,1.354,0,0,1-.674.329A1.442,1.442,0,0,1,1.321,2.4Z" transform="translate(0)" fill="#646464"/>
</svg>
