<svg xmlns="http://www.w3.org/2000/svg" width="10.818" height="9" viewBox="0 0 10.818 9">
  <path id="Vector" d="M9.466,1.421A3.387,3.387,0,0,0,10.818,0a6.254,6.254,0,0,1-1.71.65A2.1,2.1,0,0,0,7.49,0,2.208,2.208,0,0,0,5.409,2.368v.947c-1.8,0-3.561-1.443-4.655-2.842a2.369,2.369,0,0,0-.3,1.164A3.037,3.037,0,0,0,1.8,3.789,4.046,4.046,0,0,1,.451,3.316v.027A2.09,2.09,0,0,0,2.214,5.437a2.708,2.708,0,0,1-1.28.247c.282.917,1.7,1.4,2.672,1.421a5.5,5.5,0,0,1-3.155.947A3.161,3.161,0,0,1,0,8.042,6.745,6.745,0,0,0,3.606,9,6.21,6.21,0,0,0,9.917,2.667c0-.1,0-.437-.008-.535A3.559,3.559,0,0,0,10.818,1,4.877,4.877,0,0,1,9.466,1.421Z" fill="#646464"/>
</svg>
